<?xml version="1.0" standalone="no"?><!DOCTYPE svg PUBLIC "-//W3C//DTD SVG 1.1//EN" "http://www.w3.org/Graphics/SVG/1.1/DTD/svg11.dtd"><svg t="1775034116628" class="icon" viewBox="0 0 1024 1024" version="1.1" xmlns="http://www.w3.org/2000/svg" p-id="6591" xmlns:xlink="http://www.w3.org/1999/xlink" width="200" height="200"><path d="M512.000427 0.000853a510.548908 510.548908 0 0 1 362.069031 149.930542A510.548908 510.548908 0 0 1 1024 512.000427a510.548908 510.548908 0 0 1-149.930542 362.069031A510.548908 510.548908 0 0 1 512.000427 1024a510.548908 510.548908 0 0 1-362.069032-149.930542A510.548908 510.548908 0 0 1 0.000853 512.000427a510.548908 510.548908 0 0 1 149.930542-362.069032A510.548908 510.548908 0 0 1 512.000427 0.000853z m-36.60797 182.869181a36.522636 36.522636 0 0 0-36.522636 36.522637V548.693729a36.693303 36.693303 0 0 0 36.607969 36.60797h255.999787a36.522636 36.522636 0 1 0 0-73.215939H512.000427V219.392671a36.522636 36.522636 0 0 0-36.60797-36.522637z" fill="#1296db" p-id="6592"></path></svg>