<svg xmlns="http://www.w3.org/2000/svg" style="display:none">
  <symbol id="document" viewBox="0 0 24 24">
    <rect x="6" y="4" width="12" height="16" rx="2"/>
    <path d="M9 8h6"/>
    <path d="M9 12h6"/>
    <path d="M9 16h4"/>
  </symbol>
  <symbol id="file-text" viewBox="0 0 24 24">
    <path d="M14 3H7a2 2 0 0 0-2 2v14a2 2 0 0 0 2 2h10a2 2 0 0 0 2-2V8z"/>
    <path d="M14 3v5h5"/>
    <path d="M9 13h6"/>
    <path d="M9 17h4"/>
  </symbol>
  <symbol id="message-text" viewBox="0 0 24 24">
    <path d="M5 5h14v10H8l-3 3z"/>
    <path d="M8 9h8"/>
    <path d="M8 12h5"/>
  </symbol>
  <symbol id="flow" viewBox="0 0 24 24">
    <rect x="4" y="5" width="6" height="6" rx="2"/>
    <rect x="14" y="5" width="6" height="6" rx="2"/>
    <rect x="9" y="15" width="6" height="6" rx="2"/>
    <path d="M10 8h4"/>
    <path d="M12 11v4"/>
  </symbol>
  <symbol id="image" viewBox="0 0 24 24">
    <rect x="5" y="5" width="14" height="14" rx="2"/>
    <path d="M8 15l3-3 3 3 2-2 3 3"/>
    <circle cx="9" cy="9" r="1"/>
  </symbol>
  <symbol id="layers" viewBox="0 0 24 24">
    <path d="M12 3l8 4-8 4-8-4z"/>
    <path d="M4 12l8 4 8-4"/>
    <path d="M4 17l8 4 8-4"/>
  </symbol>
  <symbol id="crop" viewBox="0 0 24 24">
    <path d="M6 3v15h15"/>
    <path d="M3 6h15v15"/>
  </symbol>
  <symbol id="database" viewBox="0 0 24 24">
    <ellipse cx="12" cy="6" rx="7" ry="3"/>
    <path d="M5 6v6c0 1.7 3.1 3 7 3s7-1.3 7-3V6"/>
    <path d="M5 12v6c0 1.7 3.1 3 7 3s7-1.3 7-3v-6"/>
  </symbol>
  <symbol id="video" viewBox="0 0 24 24">
    <rect x="4" y="6" width="12" height="12" rx="2"/>
    <path d="M16 10l4-2v8l-4-2z"/>
  </symbol>
  <symbol id="film" viewBox="0 0 24 24">
    <rect x="4" y="5" width="16" height="14" rx="2"/>
    <path d="M8 5v14"/>
    <path d="M16 5v14"/>
    <path d="M4 9h4"/>
    <path d="M16 9h4"/>
    <path d="M4 15h4"/>
    <path d="M16 15h4"/>
  </symbol>
  <symbol id="play" viewBox="0 0 24 24">
    <circle cx="12" cy="12" r="8"/>
    <path d="M10 9l5 3-5 3z"/>
  </symbol>
  <symbol id="chat" viewBox="0 0 24 24">
    <path d="M5 6.5A7.5 7.5 0 0 1 12.5 4h.5a7 7 0 0 1 7 7v.2a7 7 0 0 1-7 6.8H9l-4 2v-4.2A7.2 7.2 0 0 1 5 6.5z"/>
    <path d="M9 11h6"/>
    <path d="M9 14h3"/>
  </symbol>
  <symbol id="shield-check" viewBox="0 0 24 24">
    <path d="M12 3l7 3v5c0 4-2.5 7-7 10-4.5-3-7-6-7-10V6z"/>
    <path d="M9 12l2 2 4-4"/>
  </symbol>
  <symbol id="checklist" viewBox="0 0 24 24">
    <path d="M9 6h11"/>
    <path d="M9 12h11"/>
    <path d="M9 18h11"/>
    <path d="M4 6l1 1 2-2"/>
    <path d="M4 12l1 1 2-2"/>
    <path d="M4 18l1 1 2-2"/>
  </symbol>
  <symbol id="user-check" viewBox="0 0 24 24">
    <path d="M16 21v-2a4 4 0 0 0-4-4H7a4 4 0 0 0-4 4v2"/>
    <circle cx="9.5" cy="7" r="4"/>
    <path d="M16 11l2 2 4-4"/>
  </symbol>
</svg>

